<?xml version="1.0" standalone="no"?>
<!DOCTYPE svg PUBLIC "-//W3C//DTD SVG 20010904//EN"
 "http://www.w3.org/TR/2001/REC-SVG-20010904/DTD/svg10.dtd">
<svg version="1.0" xmlns="http://www.w3.org/2000/svg"
 width="450.000000pt" height="450.000000pt" viewBox="0 0 450.000000 450.000000"
 preserveAspectRatio="xMidYMid meet">
<metadata>
Created by potrace 1.11, written by Peter Selinger 2001-2013
</metadata>
<g transform="translate(0.000000,450.000000) scale(0.100000,-0.100000)"
fill="#000000" stroke="none">
<path d="M3045 4469 c-57 -32 -98 -54 -205 -112 -41 -22 -76 -44 -78 -48 -2
-5 -9 -9 -16 -9 -7 0 -51 -22 -97 -48 -46 -27 -124 -70 -174 -97 -49 -26 -107
-59 -127 -72 -21 -13 -38 -20 -38 -17 0 4 -8 0 -17 -8 -10 -8 -58 -37 -108
-64 -49 -27 -99 -54 -110 -61 -11 -6 -33 -19 -50 -27 -16 -8 -57 -30 -90 -49
-66 -37 -147 -81 -245 -135 -36 -19 -77 -44 -92 -54 -16 -11 -28 -16 -28 -11
0 4 -4 3 -8 -3 -4 -6 -27 -21 -52 -33 -56 -29 -87 -46 -175 -96 -38 -22 -81
-46 -95 -52 -14 -7 -43 -23 -65 -36 -22 -13 -65 -36 -95 -52 -30 -17 -58 -34
-62 -40 -4 -5 -8 -6 -8 -1 0 5 -8 2 -17 -6 -10 -9 -38 -25 -63 -37 -25 -12
-61 -31 -80 -43 -19 -11 -57 -33 -85 -48 -27 -15 -71 -39 -98 -54 -26 -14 -68
-38 -95 -52 -26 -14 -52 -30 -58 -35 -6 -5 -14 -6 -17 -2 -4 3 -7 -213 -7
-480 0 -538 -5 -500 60 -457 14 9 54 31 90 50 36 18 77 41 92 52 14 10 29 18
32 18 4 0 41 20 84 44 42 24 111 62 152 84 41 23 147 81 235 130 88 49 161 88
161 88 1 -1 4 -46 7 -101 5 -99 41 -290 58 -311 5 -6 7 -13 4 -16 -6 -6 59
-197 95 -283 5 -11 21 -49 36 -85 14 -36 31 -76 37 -90 6 -14 10 -28 9 -32 -1
-5 3 -8 10 -8 6 0 9 -3 6 -6 -4 -3 8 -36 24 -72 58 -126 100 -217 132 -282 17
-36 31 -67 32 -70 0 -3 18 -41 39 -85 81 -173 172 -384 167 -390 -3 -3 0 -5 6
-5 7 0 12 -6 12 -14 0 -7 14 -47 31 -87 17 -41 35 -84 40 -96 5 -13 13 -33 19
-45 13 -32 90 -264 95 -285 1 -10 10 -45 18 -78 8 -33 18 -78 22 -100 4 -22 9
-43 11 -47 2 -3 56 22 119 58 63 35 119 64 124 64 5 0 14 7 21 15 7 9 15 13
18 10 3 -3 11 0 19 6 14 13 83 52 123 72 14 6 28 15 31 20 3 5 8 8 10 7 8 -4
59 24 59 32 0 4 9 8 19 8 11 0 22 4 25 9 4 5 27 19 54 32 26 12 49 25 52 28 3
4 32 21 65 38 44 23 60 38 61 54 2 25 -30 195 -45 242 -51 158 -96 287 -107
309 -8 15 -14 30 -14 33 1 3 -8 26 -20 51 -11 26 -20 50 -20 55 0 5 -11 32
-24 61 -14 29 -35 76 -47 103 -88 199 -104 234 -164 360 -95 200 -142 304
-231 510 -27 63 -103 263 -124 325 -12 36 -26 74 -31 85 -10 23 -34 111 -55
200 -7 33 -17 101 -20 151 l-7 91 91 52 c51 28 96 51 101 51 5 0 11 4 13 9 2
5 10 11 18 13 8 2 17 6 20 9 5 5 47 28 220 122 30 17 66 38 80 47 14 10 30 19
35 20 9 2 69 34 115 60 8 5 58 33 110 61 52 29 98 56 101 61 8 12 8 948 0 952
-3 2 -28 -9 -56 -25z"/>
<path d="M3215 4021 c0 -264 2 -481 5 -483 8 -5 48 -27 118 -65 37 -20 83 -45
102 -56 114 -64 223 -125 280 -155 36 -20 86 -47 112 -61 92 -52 167 -91 173
-91 3 0 5 215 5 478 l0 477 -195 108 c-107 60 -214 119 -237 131 -24 13 -72
40 -108 60 -36 20 -81 44 -100 54 -19 9 -37 19 -40 22 -6 6 -106 60 -112 60
-2 0 -3 -216 -3 -479z"/>
<path d="M3100 3415 c-30 -19 -61 -34 -67 -35 -7 0 -13 -5 -13 -11 0 -5 -4 -7
-10 -4 -5 3 -10 1 -10 -4 0 -6 -7 -11 -15 -11 -8 0 -15 -4 -15 -10 0 -5 -5
-10 -11 -10 -6 0 -37 -15 -68 -32 -31 -18 -58 -33 -61 -33 -3 0 -25 -12 -50
-27 -108 -63 -283 -158 -291 -158 -5 0 -9 -5 -9 -10 0 -6 -3 -9 -7 -8 -5 1
-30 -10 -56 -26 l-48 -29 38 -22 c21 -13 41 -21 45 -19 5 3 8 1 8 -5 0 -5 24
-21 53 -35 28 -14 77 -40 107 -57 30 -17 78 -43 105 -57 28 -14 52 -28 55 -31
5 -6 11 -10 115 -66 65 -35 114 -61 224 -122 l43 -24 37 19 c91 49 106 58 113
67 5 7 8 7 8 0 0 -6 3 -6 8 0 4 6 18 16 32 22 14 7 57 31 95 53 39 22 77 43
85 47 8 4 64 35 125 68 60 34 142 79 180 100 121 66 122 67 78 84 -16 6 -55
27 -88 46 -33 20 -71 41 -85 48 -14 6 -28 16 -32 22 -5 6 -8 6 -8 0 0 -7 -3
-7 -8 0 -4 6 -21 17 -37 26 -34 17 -89 48 -334 183 -96 53 -174 96 -175 95 -1
0 -26 -16 -56 -34z"/>
<path d="M2324 2857 c12 -97 104 -387 167 -524 10 -24 19 -45 19 -47 0 -2 10
-25 22 -52 12 -27 23 -51 23 -54 3 -11 26 -63 60 -135 19 -41 35 -77 35 -79 0
-2 22 -50 49 -107 97 -208 111 -239 111 -249 0 -6 4 -10 9 -10 10 0 27 39 23
53 -1 4 2 7 7 7 5 0 12 10 16 23 4 12 8 24 9 27 51 115 159 401 172 453 2 9 6
25 9 35 12 42 44 191 49 229 5 40 3 44 -32 68 -20 14 -42 25 -48 25 -7 0 -14
3 -16 8 -1 4 -23 17 -48 30 -45 22 -112 59 -232 128 -35 19 -71 38 -80 41 -10
3 -18 9 -18 13 0 6 -20 14 -50 20 -3 1 -12 7 -20 13 -17 14 -27 19 -136 78
-44 23 -85 47 -93 53 -12 9 -13 2 -7 -47z"/>
<path d="M1235 2384 c-48 -25 -480 -264 -575 -318 -25 -14 -60 -33 -79 -41
-40 -19 -43 -17 94 -90 50 -27 107 -59 128 -72 20 -13 37 -20 37 -16 0 5 4 3
8 -2 4 -6 36 -26 72 -44 36 -19 68 -39 72 -45 4 -6 8 -7 8 -2 0 5 8 3 18 -5 9
-8 40 -25 67 -39 28 -13 52 -27 55 -30 3 -3 19 -12 35 -20 17 -9 61 -33 99
-54 l69 -39 36 19 c20 10 52 28 72 41 20 12 40 19 43 16 3 -4 6 -1 6 5 0 7 7
12 15 12 8 0 15 4 15 8 0 5 -22 63 -49 130 -49 120 -127 341 -134 378 -2 10
-7 26 -10 34 -4 8 -8 26 -11 40 -18 106 -30 160 -35 160 -4 0 -29 -12 -56 -26z"/>
<path d="M1674 1303 c-4 -10 -8 -20 -9 -23 -1 -3 -11 -25 -22 -50 -11 -25 -30
-70 -43 -100 -12 -30 -26 -64 -31 -75 -10 -24 -31 -76 -35 -90 -2 -5 -17 -48
-34 -95 -16 -47 -32 -94 -35 -105 -2 -11 -11 -45 -20 -75 -19 -68 -45 -198
-45 -227 0 -15 15 -30 58 -54 31 -17 57 -30 58 -28 0 2 8 -4 18 -14 10 -9 21
-15 26 -12 5 3 10 2 12 -3 3 -8 59 -41 203 -117 50 -26 95 -51 100 -55 6 -4
46 -27 90 -51 99 -53 118 -64 174 -95 24 -13 46 -22 48 -20 3 2 -3 39 -11 83
-24 117 -26 126 -38 140 -6 7 -8 13 -5 13 6 0 -47 156 -83 245 -6 17 -12 32
-12 35 0 3 -11 29 -24 58 -13 29 -25 61 -26 70 -2 9 -9 23 -16 30 -7 8 -10 18
-7 23 4 5 1 9 -4 9 -6 0 -11 6 -11 14 0 7 -16 49 -36 92 -39 86 -57 126 -58
134 -1 3 -20 44 -44 93 -23 48 -42 89 -42 91 0 8 -80 176 -84 176 -2 0 -7 -8
-12 -17z"/>
</g>
</svg>
